<svg xmlns="http://www.w3.org/2000/svg" viewBox="0 0 32 32" fill="#7fc97f">
  <defs>
    <filter id="shadow" x="-50%" y="-50%" width="200%" height="200%">
      <feDropShadow dx="0" dy="0" stdDeviation="0.5" flood-opacity="0.3"/>
    </filter>
  </defs>
  <path filter="url(#shadow)" d="M16 2C13.5 2 11 3 9 5C7 7 6 9.5 6 12C6 14 6.5 15.5 7.5 16.5L8 17L7 18C6 19 5.5 20.5 5.5 22C5.5 24.5 7.5 26.5 10 26.5C11.5 26.5 13 26 14 25L15 24L16 25C17 26 18.5 26.5 20 26.5C22.5 26.5 24.5 24.5 24.5 22C24.5 20.5 24 19 23 18L22 17L22.5 16.5C23.5 15.5 24 14 24 12C24 9.5 23 7 21 5C19 3 16.5 2 16 2Z M16 4C18 4 20 5 21.5 6.5C23 8 24 10 24 12C24 13.5 23.5 14.5 22.5 15.5L20 18L18 16L16 14L14 16L12 18L9.5 15.5C8.5 14.5 8 13.5 8 12C8 10 9 8 10.5 6.5C12 5 14 4 16 4Z"/>
</svg>